<?xml version="1.0" encoding="utf-8" standalone="no"?>
<!DOCTYPE svg PUBLIC "-//W3C//DTD SVG 1.1//EN"
  "http://www.w3.org/Graphics/SVG/1.1/DTD/svg11.dtd">
<svg xmlns:xlink="http://www.w3.org/1999/xlink" width="1382.4pt" height="696.24pt" viewBox="0 0 1382.4 696.24" xmlns="http://www.w3.org/2000/svg" version="1.1">
 <metadata>
  <rdf:RDF xmlns:dc="http://purl.org/dc/elements/1.1/" xmlns:cc="http://creativecommons.org/ns#" xmlns:rdf="http://www.w3.org/1999/02/22-rdf-syntax-ns#">
   <cc:Work>
    <dc:type rdf:resource="http://purl.org/dc/dcmitype/StillImage"/>
    <dc:date>2022-12-07T12:00:50.029618</dc:date>
    <dc:format>image/svg+xml</dc:format>
    <dc:creator>
     <cc:Agent>
      <dc:title>Matplotlib v3.6.2, https://matplotlib.org/</dc:title>
     </cc:Agent>
    </dc:creator>
   </cc:Work>
  </rdf:RDF>
 </metadata>
 <defs>
  <style type="text/css">*{stroke-linejoin: round; stroke-linecap: butt}</style>
 </defs>
 <g id="figure_1">
  <g id="patch_1">
   <path d="M 0 696.24 
L 1382.4 696.24 
L 1382.4 0 
L 0 0 
z
" style="fill: #ffffff"/>
  </g>
  <g id="axes_1">
   <g id="patch_2">
    <path d="M 172.8 619.6536 
L 1244.16 619.6536 
L 1244.16 83.5488 
L 172.8 83.5488 
z
" style="fill: #ffffff"/>
   </g>
   <g id="matplotlib.axis_1">
    <g id="xtick_1">
     <g id="line2d_1">
      <defs>
       <path id="m096784a366" d="M 0 0 
L 0 3.5 
" style="stroke: #000000; stroke-width: 0.8"/>
      </defs>
      <g>
       <use xlink:href="#m096784a366" x="221.498182" y="619.6536" style="stroke: #000000; stroke-width: 0.8"/>
      </g>
     </g>
     <g id="text_1">
      <!-- 0 -->
      <g transform="translate(218.316932 634.252038) scale(0.1 -0.1)">
       <defs>
        <path id="DejaVuSans-30" d="M 2034 4250 
Q 1547 4250 1301 3770 
Q 1056 3291 1056 2328 
Q 1056 1369 1301 889 
Q 1547 409 2034 409 
Q 2525 409 2770 889 
Q 3016 1369 3016 2328 
Q 3016 3291 2770 3770 
Q 2525 4250 2034 4250 
z
M 2034 4750 
Q 2819 4750 3233 4129 
Q 3647 3509 3647 2328 
Q 3647 1150 3233 529 
Q 2819 -91 2034 -91 
Q 1250 -91 836 529 
Q 422 1150 422 2328 
Q 422 3509 836 4129 
Q 1250 4750 2034 4750 
z
" transform="scale(0.015625)"/>
       </defs>
       <use xlink:href="#DejaVuSans-30"/>
      </g>
     </g>
    </g>
    <g id="xtick_2">
     <g id="line2d_2">
      <g>
       <use xlink:href="#m096784a366" x="416.31039" y="619.6536" style="stroke: #000000; stroke-width: 0.8"/>
      </g>
     </g>
     <g id="text_2">
      <!-- 2000 -->
      <g transform="translate(403.58539 634.252038) scale(0.1 -0.1)">
       <defs>
        <path id="DejaVuSans-32" d="M 1228 531 
L 3431 531 
L 3431 0 
L 469 0 
L 469 531 
Q 828 903 1448 1529 
Q 2069 2156 2228 2338 
Q 2531 2678 2651 2914 
Q 2772 3150 2772 3378 
Q 2772 3750 2511 3984 
Q 2250 4219 1831 4219 
Q 1534 4219 1204 4116 
Q 875 4013 500 3803 
L 500 4441 
Q 881 4594 1212 4672 
Q 1544 4750 1819 4750 
Q 2544 4750 2975 4387 
Q 3406 4025 3406 3419 
Q 3406 3131 3298 2873 
Q 3191 2616 2906 2266 
Q 2828 2175 2409 1742 
Q 1991 1309 1228 531 
z
" transform="scale(0.015625)"/>
       </defs>
       <use xlink:href="#DejaVuSans-32"/>
       <use xlink:href="#DejaVuSans-30" x="63.623047"/>
       <use xlink:href="#DejaVuSans-30" x="127.246094"/>
       <use xlink:href="#DejaVuSans-30" x="190.869141"/>
      </g>
     </g>
    </g>
    <g id="xtick_3">
     <g id="line2d_3">
      <g>
       <use xlink:href="#m096784a366" x="611.122599" y="619.6536" style="stroke: #000000; stroke-width: 0.8"/>
      </g>
     </g>
     <g id="text_3">
      <!-- 4000 -->
      <g transform="translate(598.397599 634.252038) scale(0.1 -0.1)">
       <defs>
        <path id="DejaVuSans-34" d="M 2419 4116 
L 825 1625 
L 2419 1625 
L 2419 4116 
z
M 2253 4666 
L 3047 4666 
L 3047 1625 
L 3713 1625 
L 3713 1100 
L 3047 1100 
L 3047 0 
L 2419 0 
L 2419 1100 
L 313 1100 
L 313 1709 
L 2253 4666 
z
" transform="scale(0.015625)"/>
       </defs>
       <use xlink:href="#DejaVuSans-34"/>
       <use xlink:href="#DejaVuSans-30" x="63.623047"/>
       <use xlink:href="#DejaVuSans-30" x="127.246094"/>
       <use xlink:href="#DejaVuSans-30" x="190.869141"/>
      </g>
     </g>
    </g>
    <g id="xtick_4">
     <g id="line2d_4">
      <g>
       <use xlink:href="#m096784a366" x="805.934807" y="619.6536" style="stroke: #000000; stroke-width: 0.8"/>
      </g>
     </g>
     <g id="text_4">
      <!-- 6000 -->
      <g transform="translate(793.209807 634.252038) scale(0.1 -0.1)">
       <defs>
        <path id="DejaVuSans-36" d="M 2113 2584 
Q 1688 2584 1439 2293 
Q 1191 2003 1191 1497 
Q 1191 994 1439 701 
Q 1688 409 2113 409 
Q 2538 409 2786 701 
Q 3034 994 3034 1497 
Q 3034 2003 2786 2293 
Q 2538 2584 2113 2584 
z
M 3366 4563 
L 3366 3988 
Q 3128 4100 2886 4159 
Q 2644 4219 2406 4219 
Q 1781 4219 1451 3797 
Q 1122 3375 1075 2522 
Q 1259 2794 1537 2939 
Q 1816 3084 2150 3084 
Q 2853 3084 3261 2657 
Q 3669 2231 3669 1497 
Q 3669 778 3244 343 
Q 2819 -91 2113 -91 
Q 1303 -91 875 529 
Q 447 1150 447 2328 
Q 447 3434 972 4092 
Q 1497 4750 2381 4750 
Q 2619 4750 2861 4703 
Q 3103 4656 3366 4563 
z
" transform="scale(0.015625)"/>
       </defs>
       <use xlink:href="#DejaVuSans-36"/>
       <use xlink:href="#DejaVuSans-30" x="63.623047"/>
       <use xlink:href="#DejaVuSans-30" x="127.246094"/>
       <use xlink:href="#DejaVuSans-30" x="190.869141"/>
      </g>
     </g>
    </g>
    <g id="xtick_5">
     <g id="line2d_5">
      <g>
       <use xlink:href="#m096784a366" x="1000.747016" y="619.6536" style="stroke: #000000; stroke-width: 0.8"/>
      </g>
     </g>
     <g id="text_5">
      <!-- 8000 -->
      <g transform="translate(988.022016 634.252038) scale(0.1 -0.1)">
       <defs>
        <path id="DejaVuSans-38" d="M 2034 2216 
Q 1584 2216 1326 1975 
Q 1069 1734 1069 1313 
Q 1069 891 1326 650 
Q 1584 409 2034 409 
Q 2484 409 2743 651 
Q 3003 894 3003 1313 
Q 3003 1734 2745 1975 
Q 2488 2216 2034 2216 
z
M 1403 2484 
Q 997 2584 770 2862 
Q 544 3141 544 3541 
Q 544 4100 942 4425 
Q 1341 4750 2034 4750 
Q 2731 4750 3128 4425 
Q 3525 4100 3525 3541 
Q 3525 3141 3298 2862 
Q 3072 2584 2669 2484 
Q 3125 2378 3379 2068 
Q 3634 1759 3634 1313 
Q 3634 634 3220 271 
Q 2806 -91 2034 -91 
Q 1263 -91 848 271 
Q 434 634 434 1313 
Q 434 1759 690 2068 
Q 947 2378 1403 2484 
z
M 1172 3481 
Q 1172 3119 1398 2916 
Q 1625 2713 2034 2713 
Q 2441 2713 2670 2916 
Q 2900 3119 2900 3481 
Q 2900 3844 2670 4047 
Q 2441 4250 2034 4250 
Q 1625 4250 1398 4047 
Q 1172 3844 1172 3481 
z
" transform="scale(0.015625)"/>
       </defs>
       <use xlink:href="#DejaVuSans-38"/>
       <use xlink:href="#DejaVuSans-30" x="63.623047"/>
       <use xlink:href="#DejaVuSans-30" x="127.246094"/>
       <use xlink:href="#DejaVuSans-30" x="190.869141"/>
      </g>
     </g>
    </g>
    <g id="xtick_6">
     <g id="line2d_6">
      <g>
       <use xlink:href="#m096784a366" x="1195.559224" y="619.6536" style="stroke: #000000; stroke-width: 0.8"/>
      </g>
     </g>
     <g id="text_6">
      <!-- 10000 -->
      <g transform="translate(1179.652974 634.252038) scale(0.1 -0.1)">
       <defs>
        <path id="DejaVuSans-31" d="M 794 531 
L 1825 531 
L 1825 4091 
L 703 3866 
L 703 4441 
L 1819 4666 
L 2450 4666 
L 2450 531 
L 3481 531 
L 3481 0 
L 794 0 
L 794 531 
z
" transform="scale(0.015625)"/>
       </defs>
       <use xlink:href="#DejaVuSans-31"/>
       <use xlink:href="#DejaVuSans-30" x="63.623047"/>
       <use xlink:href="#DejaVuSans-30" x="127.246094"/>
       <use xlink:href="#DejaVuSans-30" x="190.869141"/>
       <use xlink:href="#DejaVuSans-30" x="254.492188"/>
      </g>
     </g>
    </g>
   </g>
   <g id="matplotlib.axis_2">
    <g id="ytick_1">
     <g id="line2d_7">
      <defs>
       <path id="ma6bc99334a" d="M 0 0 
L -3.5 0 
" style="stroke: #000000; stroke-width: 0.8"/>
      </defs>
      <g>
       <use xlink:href="#ma6bc99334a" x="172.8" y="596.260033" style="stroke: #000000; stroke-width: 0.8"/>
      </g>
     </g>
     <g id="text_7">
      <!-- 0 -->
      <g transform="translate(159.4375 600.059252) scale(0.1 -0.1)">
       <use xlink:href="#DejaVuSans-30"/>
      </g>
     </g>
    </g>
    <g id="ytick_2">
     <g id="line2d_8">
      <g>
       <use xlink:href="#ma6bc99334a" x="172.8" y="498.591467" style="stroke: #000000; stroke-width: 0.8"/>
      </g>
     </g>
     <g id="text_8">
      <!-- 20000 -->
      <g transform="translate(133.9875 502.390686) scale(0.1 -0.1)">
       <use xlink:href="#DejaVuSans-32"/>
       <use xlink:href="#DejaVuSans-30" x="63.623047"/>
       <use xlink:href="#DejaVuSans-30" x="127.246094"/>
       <use xlink:href="#DejaVuSans-30" x="190.869141"/>
       <use xlink:href="#DejaVuSans-30" x="254.492188"/>
      </g>
     </g>
    </g>
    <g id="ytick_3">
     <g id="line2d_9">
      <g>
       <use xlink:href="#ma6bc99334a" x="172.8" y="400.9229" style="stroke: #000000; stroke-width: 0.8"/>
      </g>
     </g>
     <g id="text_9">
      <!-- 40000 -->
      <g transform="translate(133.9875 404.722119) scale(0.1 -0.1)">
       <use xlink:href="#DejaVuSans-34"/>
       <use xlink:href="#DejaVuSans-30" x="63.623047"/>
       <use xlink:href="#DejaVuSans-30" x="127.246094"/>
       <use xlink:href="#DejaVuSans-30" x="190.869141"/>
       <use xlink:href="#DejaVuSans-30" x="254.492188"/>
      </g>
     </g>
    </g>
    <g id="ytick_4">
     <g id="line2d_10">
      <g>
       <use xlink:href="#ma6bc99334a" x="172.8" y="303.254333" style="stroke: #000000; stroke-width: 0.8"/>
      </g>
     </g>
     <g id="text_10">
      <!-- 60000 -->
      <g transform="translate(133.9875 307.053552) scale(0.1 -0.1)">
       <use xlink:href="#DejaVuSans-36"/>
       <use xlink:href="#DejaVuSans-30" x="63.623047"/>
       <use xlink:href="#DejaVuSans-30" x="127.246094"/>
       <use xlink:href="#DejaVuSans-30" x="190.869141"/>
       <use xlink:href="#DejaVuSans-30" x="254.492188"/>
      </g>
     </g>
    </g>
    <g id="ytick_5">
     <g id="line2d_11">
      <g>
       <use xlink:href="#ma6bc99334a" x="172.8" y="205.585767" style="stroke: #000000; stroke-width: 0.8"/>
      </g>
     </g>
     <g id="text_11">
      <!-- 80000 -->
      <g transform="translate(133.9875 209.384985) scale(0.1 -0.1)">
       <use xlink:href="#DejaVuSans-38"/>
       <use xlink:href="#DejaVuSans-30" x="63.623047"/>
       <use xlink:href="#DejaVuSans-30" x="127.246094"/>
       <use xlink:href="#DejaVuSans-30" x="190.869141"/>
       <use xlink:href="#DejaVuSans-30" x="254.492188"/>
      </g>
     </g>
    </g>
    <g id="ytick_6">
     <g id="line2d_12">
      <g>
       <use xlink:href="#ma6bc99334a" x="172.8" y="107.9172" style="stroke: #000000; stroke-width: 0.8"/>
      </g>
     </g>
     <g id="text_12">
      <!-- 100000 -->
      <g transform="translate(127.625 111.716419) scale(0.1 -0.1)">
       <use xlink:href="#DejaVuSans-31"/>
       <use xlink:href="#DejaVuSans-30" x="63.623047"/>
       <use xlink:href="#DejaVuSans-30" x="127.246094"/>
       <use xlink:href="#DejaVuSans-30" x="190.869141"/>
       <use xlink:href="#DejaVuSans-30" x="254.492188"/>
       <use xlink:href="#DejaVuSans-30" x="318.115234"/>
      </g>
     </g>
    </g>
    <g id="text_13">
     <!-- Temperature -->
     <g transform="translate(121.545312 383.270731) rotate(-90) scale(0.1 -0.1)">
      <defs>
       <path id="DejaVuSans-54" d="M -19 4666 
L 3928 4666 
L 3928 4134 
L 2272 4134 
L 2272 0 
L 1638 0 
L 1638 4134 
L -19 4134 
L -19 4666 
z
" transform="scale(0.015625)"/>
       <path id="DejaVuSans-65" d="M 3597 1894 
L 3597 1613 
L 953 1613 
Q 991 1019 1311 708 
Q 1631 397 2203 397 
Q 2534 397 2845 478 
Q 3156 559 3463 722 
L 3463 178 
Q 3153 47 2828 -22 
Q 2503 -91 2169 -91 
Q 1331 -91 842 396 
Q 353 884 353 1716 
Q 353 2575 817 3079 
Q 1281 3584 2069 3584 
Q 2775 3584 3186 3129 
Q 3597 2675 3597 1894 
z
M 3022 2063 
Q 3016 2534 2758 2815 
Q 2500 3097 2075 3097 
Q 1594 3097 1305 2825 
Q 1016 2553 972 2059 
L 3022 2063 
z
" transform="scale(0.015625)"/>
       <path id="DejaVuSans-6d" d="M 3328 2828 
Q 3544 3216 3844 3400 
Q 4144 3584 4550 3584 
Q 5097 3584 5394 3201 
Q 5691 2819 5691 2113 
L 5691 0 
L 5113 0 
L 5113 2094 
Q 5113 2597 4934 2840 
Q 4756 3084 4391 3084 
Q 3944 3084 3684 2787 
Q 3425 2491 3425 1978 
L 3425 0 
L 2847 0 
L 2847 2094 
Q 2847 2600 2669 2842 
Q 2491 3084 2119 3084 
Q 1678 3084 1418 2786 
Q 1159 2488 1159 1978 
L 1159 0 
L 581 0 
L 581 3500 
L 1159 3500 
L 1159 2956 
Q 1356 3278 1631 3431 
Q 1906 3584 2284 3584 
Q 2666 3584 2933 3390 
Q 3200 3197 3328 2828 
z
" transform="scale(0.015625)"/>
       <path id="DejaVuSans-70" d="M 1159 525 
L 1159 -1331 
L 581 -1331 
L 581 3500 
L 1159 3500 
L 1159 2969 
Q 1341 3281 1617 3432 
Q 1894 3584 2278 3584 
Q 2916 3584 3314 3078 
Q 3713 2572 3713 1747 
Q 3713 922 3314 415 
Q 2916 -91 2278 -91 
Q 1894 -91 1617 61 
Q 1341 213 1159 525 
z
M 3116 1747 
Q 3116 2381 2855 2742 
Q 2594 3103 2138 3103 
Q 1681 3103 1420 2742 
Q 1159 2381 1159 1747 
Q 1159 1113 1420 752 
Q 1681 391 2138 391 
Q 2594 391 2855 752 
Q 3116 1113 3116 1747 
z
" transform="scale(0.015625)"/>
       <path id="DejaVuSans-72" d="M 2631 2963 
Q 2534 3019 2420 3045 
Q 2306 3072 2169 3072 
Q 1681 3072 1420 2755 
Q 1159 2438 1159 1844 
L 1159 0 
L 581 0 
L 581 3500 
L 1159 3500 
L 1159 2956 
Q 1341 3275 1631 3429 
Q 1922 3584 2338 3584 
Q 2397 3584 2469 3576 
Q 2541 3569 2628 3553 
L 2631 2963 
z
" transform="scale(0.015625)"/>
       <path id="DejaVuSans-61" d="M 2194 1759 
Q 1497 1759 1228 1600 
Q 959 1441 959 1056 
Q 959 750 1161 570 
Q 1363 391 1709 391 
Q 2188 391 2477 730 
Q 2766 1069 2766 1631 
L 2766 1759 
L 2194 1759 
z
M 3341 1997 
L 3341 0 
L 2766 0 
L 2766 531 
Q 2569 213 2275 61 
Q 1981 -91 1556 -91 
Q 1019 -91 701 211 
Q 384 513 384 1019 
Q 384 1609 779 1909 
Q 1175 2209 1959 2209 
L 2766 2209 
L 2766 2266 
Q 2766 2663 2505 2880 
Q 2244 3097 1772 3097 
Q 1472 3097 1187 3025 
Q 903 2953 641 2809 
L 641 3341 
Q 956 3463 1253 3523 
Q 1550 3584 1831 3584 
Q 2591 3584 2966 3190 
Q 3341 2797 3341 1997 
z
" transform="scale(0.015625)"/>
       <path id="DejaVuSans-74" d="M 1172 4494 
L 1172 3500 
L 2356 3500 
L 2356 3053 
L 1172 3053 
L 1172 1153 
Q 1172 725 1289 603 
Q 1406 481 1766 481 
L 2356 481 
L 2356 0 
L 1766 0 
Q 1100 0 847 248 
Q 594 497 594 1153 
L 594 3053 
L 172 3053 
L 172 3500 
L 594 3500 
L 594 4494 
L 1172 4494 
z
" transform="scale(0.015625)"/>
       <path id="DejaVuSans-75" d="M 544 1381 
L 544 3500 
L 1119 3500 
L 1119 1403 
Q 1119 906 1312 657 
Q 1506 409 1894 409 
Q 2359 409 2629 706 
Q 2900 1003 2900 1516 
L 2900 3500 
L 3475 3500 
L 3475 0 
L 2900 0 
L 2900 538 
Q 2691 219 2414 64 
Q 2138 -91 1772 -91 
Q 1169 -91 856 284 
Q 544 659 544 1381 
z
M 1991 3584 
L 1991 3584 
z
" transform="scale(0.015625)"/>
      </defs>
      <use xlink:href="#DejaVuSans-54"/>
      <use xlink:href="#DejaVuSans-65" x="44.083984"/>
      <use xlink:href="#DejaVuSans-6d" x="105.607422"/>
      <use xlink:href="#DejaVuSans-70" x="203.019531"/>
      <use xlink:href="#DejaVuSans-65" x="266.496094"/>
      <use xlink:href="#DejaVuSans-72" x="328.019531"/>
      <use xlink:href="#DejaVuSans-61" x="369.132812"/>
      <use xlink:href="#DejaVuSans-74" x="430.412109"/>
      <use xlink:href="#DejaVuSans-75" x="469.621094"/>
      <use xlink:href="#DejaVuSans-72" x="533"/>
      <use xlink:href="#DejaVuSans-65" x="571.863281"/>
     </g>
    </g>
   </g>
   <g id="line2d_13">
    <path d="M 221.498182 107.9172 
L 221.985212 205.585767 
L 222.569649 281.200141 
L 223.251492 339.23749 
L 223.933334 379.218774 
L 224.712583 411.979719 
L 225.491832 436.147629 
L 226.368487 456.73351 
L 227.342548 474.174325 
L 228.316609 487.739404 
L 229.388076 499.558482 
L 230.459543 509.055956 
L 231.628417 517.49506 
L 232.894696 524.969109 
L 234.160975 531.147656 
L 235.524661 536.706029 
L 236.985752 541.696588 
L 238.446844 545.915411 
L 240.005342 549.751192 
L 241.661245 553.234233 
L 243.414555 556.395312 
L 245.265271 559.264364 
L 247.213393 561.869693 
L 249.258922 564.237553 
L 251.499262 566.483031 
L 253.837008 568.513282 
L 256.369567 570.421788 
L 259.096938 572.203736 
L 262.116527 573.910247 
L 265.428335 575.523607 
L 269.129767 577.07171 
L 273.220823 578.534341 
L 277.79891 579.927497 
L 282.864027 581.2341 
L 288.610988 582.484495 
L 295.137197 583.673878 
L 302.637467 584.810026 
L 311.30661 585.89182 
L 321.339439 586.913759 
L 333.125577 587.883656 
L 347.05465 588.798722 
L 363.613688 589.656344 
L 383.581939 590.460237 
L 407.933465 591.209952 
L 438.031952 591.905661 
L 475.82552 592.547811 
L 524.138948 593.136638 
L 587.258103 593.672787 
L 671.806602 594.156468 
L 788.401709 594.587627 
L 955.160959 594.966753 
L 1195.461818 595.2852 
L 1195.461818 595.2852 
" clip-path="url(#pb9bcdb1ceb)" style="fill: none; stroke: #ff0000; stroke-width: 1.5; stroke-linecap: square"/>
   </g>
   <g id="patch_3">
    <path d="M 172.8 619.6536 
L 172.8 83.5488 
" style="fill: none; stroke: #000000; stroke-width: 0.8; stroke-linejoin: miter; stroke-linecap: square"/>
   </g>
   <g id="patch_4">
    <path d="M 1244.16 619.6536 
L 1244.16 83.5488 
" style="fill: none; stroke: #000000; stroke-width: 0.8; stroke-linejoin: miter; stroke-linecap: square"/>
   </g>
   <g id="patch_5">
    <path d="M 172.8 619.6536 
L 1244.16 619.6536 
" style="fill: none; stroke: #000000; stroke-width: 0.8; stroke-linejoin: miter; stroke-linecap: square"/>
   </g>
   <g id="patch_6">
    <path d="M 172.8 83.5488 
L 1244.16 83.5488 
" style="fill: none; stroke: #000000; stroke-width: 0.8; stroke-linejoin: miter; stroke-linecap: square"/>
   </g>
   <g id="legend_1">
    <g id="patch_7">
     <path d="M 174.8 619.6536 
L 270.139063 619.6536 
Q 272.139063 619.6536 272.139063 617.6536 
L 272.139063 603.975475 
Q 272.139063 601.975475 270.139063 601.975475 
L 174.8 601.975475 
Q 172.8 601.975475 172.8 603.975475 
L 172.8 617.6536 
Q 172.8 619.6536 174.8 619.6536 
z
" style="fill: #ffffff; opacity: 0.8; stroke: #cccccc; stroke-linejoin: miter"/>
    </g>
    <g id="line2d_14">
     <path d="M 176.8 610.073913 
L 186.8 610.073913 
L 196.8 610.073913 
" style="fill: none; stroke: #ff0000; stroke-width: 1.5; stroke-linecap: square"/>
    </g>
    <g id="text_14">
     <!-- Temperature -->
     <g transform="translate(204.8 613.573913) scale(0.1 -0.1)">
      <use xlink:href="#DejaVuSans-54"/>
      <use xlink:href="#DejaVuSans-65" x="44.083984"/>
      <use xlink:href="#DejaVuSans-6d" x="105.607422"/>
      <use xlink:href="#DejaVuSans-70" x="203.019531"/>
      <use xlink:href="#DejaVuSans-65" x="266.496094"/>
      <use xlink:href="#DejaVuSans-72" x="328.019531"/>
      <use xlink:href="#DejaVuSans-61" x="369.132812"/>
      <use xlink:href="#DejaVuSans-74" x="430.412109"/>
      <use xlink:href="#DejaVuSans-75" x="469.621094"/>
      <use xlink:href="#DejaVuSans-72" x="533"/>
      <use xlink:href="#DejaVuSans-65" x="571.863281"/>
     </g>
    </g>
   </g>
  </g>
  <g id="axes_2">
   <g id="line2d_15">
    <path d="M 221.498182 161.478309 
L 221.595588 158.11461 
L 221.692994 118.186454 
L 221.7904 162.248499 
L 221.887806 107.9172 
L 221.985212 240.462054 
L 222.180025 107.9172 
L 222.374837 188.910157 
L 222.472243 209.68176 
L 222.569649 114.668782 
L 222.667055 179.631906 
L 222.764461 107.9172 
L 222.959273 260.096223 
L 223.056679 245.778237 
L 223.154086 255.036955 
L 223.251492 291.610372 
L 223.348898 148.303576 
L 223.446304 271.208737 
L 223.641116 157.287577 
L 223.835928 225.289463 
L 223.933334 178.63814 
L 224.030741 198.936062 
L 224.128147 165.273901 
L 224.225553 330.63433 
L 224.420365 189.582963 
L 224.517771 240.217142 
L 224.712583 381.465212 
L 224.809989 408.647466 
L 224.907395 321.213573 
L 225.102208 425.056729 
L 225.199614 263.425767 
L 225.394426 372.875876 
L 225.491832 125.63297 
L 225.589238 295.612319 
L 225.686644 258.55821 
L 225.78405 474.27589 
L 225.881457 356.69809 
L 225.978863 377.489932 
L 226.076269 436.454082 
L 226.173675 314.666871 
L 226.271081 374.076304 
L 226.368487 229.407368 
L 226.465893 367.840875 
L 226.563299 263.62615 
L 226.660705 397.240753 
L 226.758111 304.997795 
L 226.952924 378.59266 
L 227.147736 413.677024 
L 227.245142 148.410839 
L 227.342548 440.050295 
L 227.439954 416.533716 
L 227.732172 226.527612 
L 227.829579 412.333079 
L 228.024391 311.126614 
L 228.121797 370.973751 
L 228.219203 358.31332 
L 228.316609 247.616684 
L 228.511421 337.268713 
L 228.608827 213.557135 
L 228.706234 381.550936 
L 228.80364 170.835085 
L 229.193264 378.543898 
L 229.29067 262.625687 
L 229.485482 394.377925 
L 229.582888 280.565789 
L 229.680295 432.159106 
L 229.777701 231.488759 
L 230.069919 466.306473 
L 230.264731 107.9172 
L 230.362137 224.704407 
L 230.459543 496.945532 
L 230.654356 107.9172 
L 230.849168 508.008155 
L 230.946574 283.135311 
L 231.141386 534.027627 
L 231.238792 353.864879 
L 231.433604 485.243049 
L 231.628417 342.869966 
L 231.725823 453.665615 
L 231.823229 442.379792 
L 231.920635 329.22104 
L 232.115447 554.059721 
L 232.212853 503.930523 
L 232.310259 521.585444 
L 232.407665 460.79498 
L 232.699884 538.553424 
L 232.79729 514.281123 
L 233.089508 587.180765 
L 233.186914 462.745863 
L 233.381727 567.584118 
L 233.479133 510.256446 
L 233.673945 569.598985 
L 233.771351 575.838537 
L 233.868757 571.257809 
L 233.966163 522.284029 
L 234.063569 578.294851 
L 234.160975 554.980444 
L 234.258381 583.865836 
L 234.453194 530.040783 
L 234.648006 583.164624 
L 234.745412 574.955569 
L 234.842818 586.442843 
L 234.940224 550.119882 
L 235.03763 580.538498 
L 235.135036 527.595131 
L 235.232443 582.648902 
L 235.329849 566.69084 
L 235.427255 574.593069 
L 235.524661 568.105905 
L 235.622067 529.737083 
L 235.719473 577.59513 
L 235.816879 571.481846 
L 235.914285 581.115477 
L 236.011691 525.669892 
L 236.109097 555.927978 
L 236.206504 508.661151 
L 236.30391 557.772802 
L 236.401316 534.869109 
L 236.498722 328.35706 
L 236.693534 579.512959 
L 236.79094 528.286549 
L 236.985752 567.866192 
L 237.083158 484.217549 
L 237.180565 545.148439 
L 237.277971 491.020435 
L 237.375377 584.693078 
L 237.472783 501.662256 
L 237.667595 584.355788 
L 237.765001 563.872085 
L 237.862407 578.105173 
L 237.959813 437.824251 
L 238.154626 537.876177 
L 238.252032 128.164592 
L 238.446844 577.688006 
L 238.54425 544.192099 
L 238.641656 107.9172 
L 238.739062 578.849801 
L 238.836468 551.210167 
L 238.933874 513.264268 
L 239.128687 558.659782 
L 239.226093 547.02904 
L 239.323499 551.191739 
L 239.420905 507.399994 
L 239.518311 568.994783 
L 239.615717 548.384365 
L 239.713123 574.459194 
L 239.810529 554.035515 
L 239.907936 556.199273 
L 240.005342 574.928716 
L 240.102748 563.790556 
L 240.200154 579.656523 
L 240.29756 329.464643 
L 240.394966 563.239805 
L 240.492372 505.076174 
L 240.687184 587.759834 
L 240.78459 585.51218 
L 240.881997 334.708179 
L 240.979403 588.936821 
L 241.076809 389.895431 
L 241.271621 562.933373 
L 241.466433 525.966169 
L 241.661245 589.25627 
L 241.758652 518.477301 
L 241.856058 584.639272 
L 242.05087 489.328186 
L 242.245682 587.743735 
L 242.5379 444.142642 
L 242.732713 580.585876 
L 242.830119 375.705452 
L 242.927525 468.148932 
L 243.024931 107.9172 
L 243.122337 574.174174 
L 243.219743 562.578221 
L 243.317149 582.874891 
L 243.414555 577.535396 
L 243.511961 591.146799 
L 243.609367 482.326023 
L 243.80418 589.779552 
L 243.901586 526.806723 
L 243.998992 593.733482 
L 244.096398 582.326965 
L 244.193804 589.955886 
L 244.29121 546.121995 
L 244.388616 296.971838 
L 244.583429 570.768893 
L 244.680835 502.495329 
L 244.778241 593.494787 
L 244.875647 531.364741 
L 244.973053 579.815853 
L 245.070459 515.517115 
L 245.167865 517.224441 
L 245.265271 581.82583 
L 245.362677 578.19749 
L 245.460083 575.429175 
L 245.55749 593.647365 
L 245.654896 586.174154 
L 245.752302 547.857308 
L 245.849708 584.449682 
L 245.947114 457.062039 
L 246.04452 592.33879 
L 246.141926 589.027264 
L 246.239332 455.764987 
L 246.336738 592.025796 
L 246.434145 586.963659 
L 246.531551 578.878193 
L 246.628957 589.954591 
L 246.726363 589.574638 
L 246.823769 593.188804 
L 246.921175 591.139235 
L 247.018581 580.499959 
L 247.213393 514.010767 
L 247.408206 594.540158 
L 247.603018 569.89337 
L 247.700424 592.819116 
L 247.79783 592.051072 
L 247.895236 594.590922 
L 247.992642 594.182026 
L 248.090048 592.323278 
L 248.28486 584.316733 
L 248.382267 594.193033 
L 248.479673 574.169296 
L 248.577079 592.461383 
L 248.674485 529.56407 
L 248.869297 593.73215 
L 248.966703 593.769791 
L 249.064109 594.481981 
L 249.161515 587.908108 
L 249.258922 542.309173 
L 249.356328 592.479381 
L 249.453734 549.811348 
L 249.55114 593.229781 
L 249.648546 585.909273 
L 249.745952 590.116819 
L 249.843358 590.08806 
L 250.03817 593.644314 
L 250.135576 578.569549 
L 250.330389 594.478178 
L 250.427795 592.77391 
L 250.525201 593.78983 
L 250.622607 587.873191 
L 250.720013 591.410534 
L 250.817419 558.433731 
L 250.914825 593.782614 
L 251.012231 584.551155 
L 251.109638 595.052957 
L 251.207044 581.582478 
L 251.401856 594.9656 
L 251.499262 594.854912 
L 251.596668 591.318032 
L 251.694074 592.63573 
L 251.79148 581.914905 
L 251.986292 595.134363 
L 252.083699 590.097526 
L 252.181105 594.54433 
L 252.278511 577.912648 
L 252.375917 594.811309 
L 252.473323 588.9867 
L 252.570729 590.107373 
L 252.765541 595.111036 
L 252.862947 589.159791 
L 252.960353 595.034559 
L 253.05776 561.047085 
L 253.155166 594.392135 
L 253.252572 592.058927 
L 253.349978 590.901906 
L 253.447384 585.021068 
L 253.54479 594.935851 
L 253.642196 592.596469 
L 253.739602 587.301472 
L 253.837008 594.585761 
L 253.934415 593.605222 
L 254.031821 592.111857 
L 254.129227 595.000825 
L 254.421445 587.310169 
L 254.518851 593.129491 
L 254.616257 591.792974 
L 254.811069 594.810852 
L 254.908476 590.33769 
L 255.103288 594.203478 
L 255.200694 593.848045 
L 255.2981 594.974511 
L 255.395506 594.673135 
L 255.590318 595.095934 
L 255.687724 594.999834 
L 255.785131 573.739603 
L 255.979943 595.174995 
L 256.077349 594.390244 
L 256.174755 594.433155 
L 256.272161 589.210501 
L 256.369567 594.140263 
L 256.466973 586.647982 
L 256.564379 594.871097 
L 256.661785 593.732913 
L 256.759192 568.584935 
L 256.856598 590.360967 
L 256.954004 587.997854 
L 257.05141 595.26239 
L 257.148816 594.050241 
L 257.246222 580.123227 
L 257.343628 594.591056 
L 257.441034 592.905176 
L 257.53844 595.262943 
L 257.635846 592.576309 
L 257.733253 594.882716 
L 257.830659 592.31606 
L 257.928065 568.81082 
L 258.122877 595.16202 
L 258.317689 594.473667 
L 258.415095 592.722728 
L 258.609908 594.885684 
L 258.707314 593.113115 
L 258.902126 595.02418 
L 258.999532 592.488306 
L 259.096938 595.19973 
L 259.194344 595.008021 
L 259.29175 594.848531 
L 259.389156 593.674745 
L 259.486562 580.314881 
L 259.583969 580.892092 
L 259.681375 594.007457 
L 259.876187 580.904609 
L 259.973593 595.124591 
L 260.070999 578.746692 
L 260.168405 593.098017 
L 260.265811 569.058408 
L 260.460624 594.381936 
L 260.55803 593.083404 
L 260.752842 548.200671 
L 260.947654 595.242816 
L 261.04506 592.836534 
L 261.142466 595.066123 
L 261.239872 594.211417 
L 261.434685 594.929967 
L 261.532091 592.848276 
L 261.629497 593.727174 
L 261.726903 592.340366 
L 262.019121 595.173189 
L 262.116527 592.001846 
L 262.408746 595.112856 
L 262.506152 590.104421 
L 262.700964 595.228015 
L 262.79837 593.872454 
L 262.895776 594.726725 
L 262.993182 589.154472 
L 263.187994 595.259818 
L 263.285401 590.277306 
L 263.382807 590.50769 
L 263.577619 595.252237 
L 263.675025 590.604234 
L 263.772431 594.985047 
L 263.869837 590.869221 
L 264.064649 594.936331 
L 264.259462 595.260896 
L 264.55168 593.871648 
L 264.746492 595.107516 
L 264.843898 593.086108 
L 264.941304 586.813904 
L 265.03871 544.20436 
L 265.233523 594.671141 
L 265.330929 595.234131 
L 265.428335 594.345404 
L 265.525741 595.279159 
L 265.623147 595.001887 
L 265.817959 591.741507 
L 266.012771 595.184044 
L 266.110178 595.030382 
L 266.30499 592.336573 
L 266.499802 595.259521 
L 266.694614 594.812189 
L 266.79202 594.350907 
L 266.889426 595.131275 
L 266.986833 560.149438 
L 267.084239 594.338659 
L 267.181645 496.550695 
L 267.279051 594.958542 
L 267.376457 594.702817 
L 267.473863 594.815684 
L 267.571269 594.458164 
L 267.668675 595.152581 
L 267.766081 594.602777 
L 267.960894 595.242544 
L 268.155706 595.276618 
L 268.350518 595.246593 
L 268.447924 595.024659 
L 268.54533 595.161868 
L 268.642736 586.202137 
L 268.837548 595.177977 
L 268.934955 593.282171 
L 269.032361 595.001773 
L 269.129767 594.429355 
L 269.227173 595.219638 
L 269.324579 595.17229 
L 269.421985 594.765698 
L 269.519391 581.349659 
L 269.616797 594.943317 
L 269.714203 588.953875 
L 269.909016 595.075668 
L 270.006422 593.245662 
L 270.201234 595.263811 
L 270.29864 594.369429 
L 270.396046 595.272894 
L 270.493452 594.407905 
L 270.590858 594.473821 
L 270.883077 595.282274 
L 270.980483 594.012552 
L 271.175295 595.266377 
L 271.272701 593.93718 
L 271.467513 595.281116 
L 271.564919 594.92976 
L 271.662326 595.277301 
L 271.759732 594.715992 
L 271.857138 595.277151 
L 271.954544 594.275603 
L 272.05195 595.155228 
L 272.149356 593.657514 
L 272.246762 595.1004 
L 272.344168 594.809592 
L 272.441574 595.27175 
L 272.53898 595.237931 
L 272.636387 591.500792 
L 272.733793 595.281649 
L 272.831199 595.176295 
L 273.123417 595.260065 
L 273.220823 595.275962 
L 273.415635 595.057307 
L 273.513041 594.553343 
L 273.707854 595.198386 
L 273.80526 593.060799 
L 273.902666 593.498158 
L 274.000072 595.218755 
L 274.097478 595.206882 
L 274.194884 593.921365 
L 274.29229 575.88298 
L 274.487103 595.245544 
L 274.584509 593.750585 
L 274.974133 595.258553 
L 275.071539 580.480873 
L 275.266351 595.254832 
L 275.363757 591.322342 
L 275.461164 595.226472 
L 275.55857 593.180139 
L 275.753382 595.098631 
L 275.948194 595.243965 
L 276.0456 594.962167 
L 276.143006 593.860393 
L 276.240412 593.985762 
L 276.435225 595.195733 
L 276.532631 594.923525 
L 276.630037 568.768586 
L 276.727443 595.283103 
L 276.824849 595.114992 
L 276.922255 588.588007 
L 277.117067 595.263327 
L 277.214473 593.396178 
L 277.31188 595.283377 
L 277.409286 587.581417 
L 277.506692 595.197751 
L 277.604098 594.53029 
L 277.701504 595.181998 
L 277.79891 593.90278 
L 277.993722 595.270958 
L 278.091128 445.041073 
L 278.285941 595.277292 
L 278.383347 581.771885 
L 278.480753 595.121395 
L 278.578159 595.053084 
L 278.675565 595.147798 
L 278.772971 584.1682 
L 278.967783 595.278943 
L 279.065189 595.269402 
L 279.162596 595.028696 
L 279.260002 578.343475 
L 279.357408 593.379976 
L 279.454814 578.404018 
L 279.55222 593.651219 
L 279.649626 591.747388 
L 279.747032 595.205961 
L 279.844438 588.871121 
L 279.941844 595.170149 
L 280.03925 595.045898 
L 280.234063 595.283727 
L 280.331469 593.919642 
L 280.623687 595.133445 
L 280.818499 593.158738 
L 281.013312 595.281608 
L 281.110718 591.071777 
L 281.30553 595.273575 
L 281.402936 594.270818 
L 281.500342 595.24116 
L 281.597748 593.602573 
L 281.695154 595.279263 
L 281.79256 592.550312 
L 281.889966 595.143723 
L 281.987373 591.288914 
L 282.182185 595.267303 
L 282.279591 587.6706 
L 282.376997 595.248301 
L 282.474403 594.589414 
L 282.571809 587.650593 
L 282.669215 595.239358 
L 282.766621 595.22688 
L 282.864027 593.208107 
L 282.961434 594.760972 
L 283.05884 594.039174 
L 283.253652 595.27842 
L 283.351058 595.081892 
L 283.54587 595.282174 
L 283.643276 594.847943 
L 283.740682 595.280017 
L 283.838089 595.236074 
L 283.935495 595.267309 
L 284.032901 583.322189 
L 284.130307 595.24949 
L 284.227713 592.492292 
L 284.325119 595.278918 
L 284.422525 402.300003 
L 284.617337 594.964828 
L 284.714743 594.463669 
L 284.81215 595.276391 
L 284.909556 591.523239 
L 285.104368 595.285054 
L 285.201774 595.015354 
L 285.29918 595.219123 
L 285.396586 164.337178 
L 285.493992 595.264154 
L 285.591398 595.131237 
L 285.688805 595.159228 
L 285.786211 580.844949 
L 285.981023 595.273682 
L 286.175835 594.48547 
L 286.273241 595.238144 
L 286.370647 589.326219 
L 286.468053 595.258891 
L 286.565459 592.078496 
L 286.662866 595.284182 
L 286.760272 425.237415 
L 286.955084 593.498519 
L 287.05249 515.479376 
L 287.247302 581.354508 
L 287.344708 595.273691 
L 287.442114 594.526126 
L 287.636927 595.276105 
L 287.734333 595.239929 
L 287.929145 591.076384 
L 288.026551 595.131536 
L 288.123957 589.152351 
L 288.221363 444.067657 
L 288.318769 595.27834 
L 288.416175 594.991112 
L 288.513582 178.508126 
L 288.708394 595.273333 
L 288.8058 594.779997 
L 289.000612 595.271386 
L 289.195424 594.990757 
L 289.29283 588.758931 
L 289.390236 592.426747 
L 289.487643 537.177192 
L 289.585049 594.893957 
L 289.779861 571.932199 
L 289.974673 594.681401 
L 290.072079 593.812815 
L 290.266891 595.284704 
L 290.364298 595.142475 
L 290.461704 595.268356 
L 290.55911 593.475402 
L 290.656516 595.281589 
L 290.753922 593.782084 
L 290.851328 595.284947 
L 290.948734 595.028953 
L 291.04614 593.580227 
L 291.143546 562.568211 
L 291.240952 107.9172 
L 291.435765 595.278345 
L 291.533171 590.682383 
L 291.630577 595.065743 
L 291.727983 592.301505 
L 291.825389 595.270606 
L 291.922795 595.260831 
L 292.215014 595.018322 
L 292.31242 594.379662 
L 292.507232 595.278181 
L 292.604638 594.058878 
L 292.79945 595.275959 
L 292.896856 593.361079 
L 292.994262 595.122189 
L 293.091668 595.086991 
L 293.383887 595.269329 
L 293.481293 594.39607 
L 293.676105 595.257555 
L 293.773511 594.290465 
L 293.870917 595.20025 
L 293.968323 595.098432 
L 294.065729 595.28498 
L 294.163136 594.996157 
L 294.357948 595.283021 
L 294.455354 593.626375 
L 294.650166 595.279926 
L 294.747572 594.052623 
L 294.844978 595.276803 
L 294.942384 594.625715 
L 295.137197 595.284326 
L 295.234603 595.192481 
L 295.332009 595.284831 
L 295.429415 590.74631 
L 295.624227 595.263769 
L 295.721633 593.076426 
L 295.916445 595.218256 
L 296.111258 595.279368 
L 296.208664 593.585436 
L 296.30607 595.280848 
L 296.403476 592.763807 
L 296.598288 595.270037 
L 296.7931 595.282157 
L 296.987913 591.762511 
L 297.085319 595.282937 
L 297.182725 594.95403 
L 297.280131 593.361806 
L 297.474943 595.285037 
L 297.669755 595.171414 
L 297.864568 575.544796 
L 298.05938 595.277459 
L 298.838629 595.284375 
L 298.936035 594.381403 
L 299.033441 595.285057 
L 299.130847 595.123047 
L 299.325659 595.284205 
L 299.520471 595.262831 
L 299.617877 593.89907 
L 299.81269 595.265903 
L 299.910096 595.264121 
L 300.007502 594.93672 
L 300.202314 595.262939 
L 300.397126 107.9172 
L 300.591938 595.28218 
L 300.689345 595.078442 
L 300.786751 583.848203 
L 300.981563 595.126238 
L 301.078969 572.568769 
L 301.273781 593.392138 
L 301.566 595.236927 
L 301.663406 107.9172 
L 301.858218 595.284972 
L 301.955624 595.284967 
L 302.05303 594.602709 
L 302.150436 595.2852 
L 302.247842 590.314451 
L 302.442654 595.283984 
L 302.637467 595.285174 
L 304.780401 595.238586 
L 304.877807 595.063352 
L 304.975213 593.916315 
L 305.170025 595.277809 
L 305.754462 595.285177 
L 305.851868 594.972101 
L 305.949274 595.285194 
L 306.04668 594.802568 
L 306.241493 595.28517 
L 306.338899 595.285152 
L 306.436305 499.166923 
L 306.533711 595.283437 
L 306.631117 595.282254 
L 307.118147 595.282917 
L 307.215554 595.102092 
L 307.410366 595.282008 
L 309.06627 595.285196 
L 309.163676 594.112464 
L 309.358488 595.28445 
L 309.650706 595.280275 
L 309.748112 595.113274 
L 309.845518 464.493434 
L 309.942924 595.283672 
L 310.040331 595.263875 
L 310.429955 595.285152 
L 310.624767 595.285196 
L 313.449544 595.2852 
L 313.54695 595.043487 
L 313.741763 595.285133 
L 313.839169 591.55271 
L 314.033981 595.285177 
L 315.592479 595.285115 
L 315.689885 594.780334 
L 315.787291 595.2852 
L 315.884697 594.361403 
L 316.079509 595.285198 
L 316.274321 595.285196 
L 317.540601 595.282969 
L 317.638007 593.832252 
L 317.735413 595.284973 
L 317.832819 595.27664 
L 318.125037 595.190431 
L 318.319849 595.284643 
L 321.826469 595.2852 
L 321.923875 593.844069 
L 322.021281 595.28458 
L 322.118688 593.295174 
L 322.3135 595.285196 
L 326.112338 595.285196 
L 326.209744 212.672028 
L 326.404556 595.2852 
L 326.501962 591.597085 
L 326.696774 595.285173 
L 326.891587 595.285079 
L 326.988993 595.114906 
L 327.183805 595.285196 
L 328.06046 595.285063 
L 328.157866 595.086947 
L 328.352678 595.2852 
L 329.034521 595.2852 
L 329.131927 579.957763 
L 329.326739 595.2852 
L 329.424145 595.124776 
L 329.618958 595.285169 
L 330.495612 595.285189 
L 330.593019 594.860903 
L 330.787831 595.2852 
L 333.515202 595.284828 
L 333.612608 593.735225 
L 333.80742 595.2852 
L 334.878887 595.246739 
L 334.976293 592.78354 
L 335.171105 595.2852 
L 336.729603 595.28056 
L 336.827009 588.02619 
L 337.021821 595.2852 
L 337.216634 595.267987 
L 337.31404 595.160337 
L 337.508852 595.285199 
L 340.333629 595.285189 
L 340.431035 595.162087 
L 340.625847 595.282964 
L 344.81431 595.284797 
L 344.911716 393.195535 
L 345.106528 595.284993 
L 345.983183 595.263552 
L 346.080589 594.756443 
L 346.275401 595.285196 
L 348.223523 595.263735 
L 348.32093 595.098737 
L 348.515742 595.2852 
L 348.710554 595.28245 
L 348.80796 595.11173 
L 349.002772 595.28437 
L 349.684615 595.2851 
L 349.782021 589.575551 
L 349.976833 595.268198 
L 350.756082 595.2852 
L 351.145707 595.284208 
L 351.243113 594.111159 
L 351.437925 595.284293 
L 351.535331 595.151223 
L 351.730143 595.28519 
L 352.022362 595.283667 
L 352.119768 258.249626 
L 352.217174 595.2852 
L 352.31458 595.285144 
L 353.580859 595.285197 
L 353.678265 595.168727 
L 353.873077 595.2852 
L 360.691505 595.285179 
L 360.788911 595.035434 
L 360.983723 595.285188 
L 363.224063 595.2852 
L 363.32147 594.415901 
L 363.516282 595.2852 
L 363.613688 595.2852 
L 363.711094 583.535127 
L 363.905906 595.2852 
L 364.392937 595.284786 
L 364.490343 568.511515 
L 364.685155 595.284879 
L 365.074779 595.2852 
L 365.172186 592.231101 
L 365.366998 595.285187 
L 371.503582 595.2852 
L 371.600988 594.771097 
L 371.795801 595.2852 
L 381.731223 595.2852 
L 381.828629 594.889909 
L 382.023442 595.2852 
L 384.945625 595.245364 
L 385.043031 107.9172 
L 385.140437 595.285194 
L 385.237843 595.285174 
L 385.530061 595.284693 
L 385.627467 358.345783 
L 385.82228 595.282806 
L 386.504122 595.284373 
L 386.601529 107.9172 
L 386.796341 595.2852 
L 395.173266 595.2852 
L 395.270672 594.716929 
L 395.465484 595.2852 
L 397.023982 595.2852 
L 397.121388 595.162316 
L 397.3162 595.2852 
L 398.095449 595.2852 
L 398.192855 107.9172 
L 398.387667 595.2852 
L 399.55654 595.285184 
L 399.653946 162.308687 
L 399.751353 595.2852 
L 399.848759 595.285176 
L 402.868348 595.2852 
L 402.965754 595.100927 
L 403.160566 595.28517 
L 405.693125 595.2852 
L 405.790531 595.150134 
L 405.985343 595.285199 
L 407.836059 595.285199 
L 407.933465 595.112106 
L 408.128278 595.2852 
L 410.758242 595.284646 
L 410.855648 595.120313 
L 411.050461 595.2852 
L 416.894827 595.2852 
L 416.992233 594.471502 
L 417.187045 595.2852 
L 424.784721 595.2852 
L 424.882127 594.063563 
L 425.07694 595.2852 
L 430.921306 595.2852 
L 431.018712 107.9172 
L 431.213524 595.2852 
L 447.869968 595.2852 
L 447.967374 500.665615 
L 448.162186 595.2852 
L 464.234194 595.2852 
L 464.3316 595.173207 
L 464.526412 595.2852 
L 551.120439 595.2852 
L 551.217845 562.31301 
L 551.412657 595.2852 
L 661.871179 595.2852 
L 661.968585 107.9172 
L 662.163397 595.2852 
L 698.203656 595.2852 
L 698.301062 594.889817 
L 698.495874 595.2852 
L 753.432917 595.2852 
L 753.530323 593.948255 
L 753.725135 595.2852 
L 926.913189 595.2852 
L 927.010595 587.691488 
L 927.205407 595.2852 
L 927.400219 595.2852 
L 927.497625 107.9172 
L 927.692438 595.2852 
L 938.89414 595.2852 
L 938.991546 594.074029 
L 939.186358 595.2852 
L 969.38225 595.2852 
L 969.479656 107.9172 
L 969.674469 595.2852 
L 1142.180679 595.2852 
L 1142.278085 587.0686 
L 1142.472897 595.2852 
L 1195.461818 595.2852 
L 1195.461818 595.2852 
" clip-path="url(#pb9bcdb1ceb)" style="fill: none; stroke: #ffa500; stroke-width: 1.5; stroke-linecap: square"/>
   </g>
   <g id="patch_8">
    <path d="M 172.8 619.6536 
L 172.8 83.5488 
" style="fill: none; stroke: #000000; stroke-width: 0.8; stroke-linejoin: miter; stroke-linecap: square"/>
   </g>
   <g id="patch_9">
    <path d="M 1244.16 619.6536 
L 1244.16 83.5488 
" style="fill: none; stroke: #000000; stroke-width: 0.8; stroke-linejoin: miter; stroke-linecap: square"/>
   </g>
   <g id="patch_10">
    <path d="M 172.8 619.6536 
L 1244.16 619.6536 
" style="fill: none; stroke: #000000; stroke-width: 0.8; stroke-linejoin: miter; stroke-linecap: square"/>
   </g>
   <g id="patch_11">
    <path d="M 172.8 83.5488 
L 1244.16 83.5488 
" style="fill: none; stroke: #000000; stroke-width: 0.8; stroke-linejoin: miter; stroke-linecap: square"/>
   </g>
   <g id="legend_2">
    <g id="patch_12">
     <path d="M 174.8 83.5488 
L 259.657812 83.5488 
Q 261.657812 83.5488 261.657812 81.5488 
L 261.657812 67.870675 
Q 261.657812 65.870675 259.657812 65.870675 
L 174.8 65.870675 
Q 172.8 65.870675 172.8 67.870675 
L 172.8 81.5488 
Q 172.8 83.5488 174.8 83.5488 
z
" style="fill: #ffffff; opacity: 0.8; stroke: #cccccc; stroke-linejoin: miter"/>
    </g>
    <g id="line2d_16">
     <path d="M 176.8 73.969113 
L 186.8 73.969113 
L 196.8 73.969113 
" style="fill: none; stroke: #ffa500; stroke-width: 1.5; stroke-linecap: square"/>
    </g>
    <g id="text_15">
     <!-- Probability -->
     <g transform="translate(204.8 77.469113) scale(0.1 -0.1)">
      <defs>
       <path id="DejaVuSans-50" d="M 1259 4147 
L 1259 2394 
L 2053 2394 
Q 2494 2394 2734 2622 
Q 2975 2850 2975 3272 
Q 2975 3691 2734 3919 
Q 2494 4147 2053 4147 
L 1259 4147 
z
M 628 4666 
L 2053 4666 
Q 2838 4666 3239 4311 
Q 3641 3956 3641 3272 
Q 3641 2581 3239 2228 
Q 2838 1875 2053 1875 
L 1259 1875 
L 1259 0 
L 628 0 
L 628 4666 
z
" transform="scale(0.015625)"/>
       <path id="DejaVuSans-6f" d="M 1959 3097 
Q 1497 3097 1228 2736 
Q 959 2375 959 1747 
Q 959 1119 1226 758 
Q 1494 397 1959 397 
Q 2419 397 2687 759 
Q 2956 1122 2956 1747 
Q 2956 2369 2687 2733 
Q 2419 3097 1959 3097 
z
M 1959 3584 
Q 2709 3584 3137 3096 
Q 3566 2609 3566 1747 
Q 3566 888 3137 398 
Q 2709 -91 1959 -91 
Q 1206 -91 779 398 
Q 353 888 353 1747 
Q 353 2609 779 3096 
Q 1206 3584 1959 3584 
z
" transform="scale(0.015625)"/>
       <path id="DejaVuSans-62" d="M 3116 1747 
Q 3116 2381 2855 2742 
Q 2594 3103 2138 3103 
Q 1681 3103 1420 2742 
Q 1159 2381 1159 1747 
Q 1159 1113 1420 752 
Q 1681 391 2138 391 
Q 2594 391 2855 752 
Q 3116 1113 3116 1747 
z
M 1159 2969 
Q 1341 3281 1617 3432 
Q 1894 3584 2278 3584 
Q 2916 3584 3314 3078 
Q 3713 2572 3713 1747 
Q 3713 922 3314 415 
Q 2916 -91 2278 -91 
Q 1894 -91 1617 61 
Q 1341 213 1159 525 
L 1159 0 
L 581 0 
L 581 4863 
L 1159 4863 
L 1159 2969 
z
" transform="scale(0.015625)"/>
       <path id="DejaVuSans-69" d="M 603 3500 
L 1178 3500 
L 1178 0 
L 603 0 
L 603 3500 
z
M 603 4863 
L 1178 4863 
L 1178 4134 
L 603 4134 
L 603 4863 
z
" transform="scale(0.015625)"/>
       <path id="DejaVuSans-6c" d="M 603 4863 
L 1178 4863 
L 1178 0 
L 603 0 
L 603 4863 
z
" transform="scale(0.015625)"/>
       <path id="DejaVuSans-79" d="M 2059 -325 
Q 1816 -950 1584 -1140 
Q 1353 -1331 966 -1331 
L 506 -1331 
L 506 -850 
L 844 -850 
Q 1081 -850 1212 -737 
Q 1344 -625 1503 -206 
L 1606 56 
L 191 3500 
L 800 3500 
L 1894 763 
L 2988 3500 
L 3597 3500 
L 2059 -325 
z
" transform="scale(0.015625)"/>
      </defs>
      <use xlink:href="#DejaVuSans-50"/>
      <use xlink:href="#DejaVuSans-72" x="58.552734"/>
      <use xlink:href="#DejaVuSans-6f" x="97.416016"/>
      <use xlink:href="#DejaVuSans-62" x="158.597656"/>
      <use xlink:href="#DejaVuSans-61" x="222.074219"/>
      <use xlink:href="#DejaVuSans-62" x="283.353516"/>
      <use xlink:href="#DejaVuSans-69" x="346.830078"/>
      <use xlink:href="#DejaVuSans-6c" x="374.613281"/>
      <use xlink:href="#DejaVuSans-69" x="402.396484"/>
      <use xlink:href="#DejaVuSans-74" x="430.179688"/>
      <use xlink:href="#DejaVuSans-79" x="469.388672"/>
     </g>
    </g>
   </g>
  </g>
  <g id="axes_3">
   <g id="matplotlib.axis_3">
    <g id="ytick_7">
     <g id="line2d_17">
      <defs>
       <path id="m5d91394346" d="M 0 0 
L 3.5 0 
" style="stroke: #000000; stroke-width: 0.8"/>
      </defs>
      <g>
       <use xlink:href="#m5d91394346" x="1244.16" y="574.395384" style="stroke: #000000; stroke-width: 0.8"/>
      </g>
     </g>
     <g id="text_16">
      <!-- 320000 -->
      <g transform="translate(1251.16 578.194602) scale(0.1 -0.1)">
       <defs>
        <path id="DejaVuSans-33" d="M 2597 2516 
Q 3050 2419 3304 2112 
Q 3559 1806 3559 1356 
Q 3559 666 3084 287 
Q 2609 -91 1734 -91 
Q 1441 -91 1130 -33 
Q 819 25 488 141 
L 488 750 
Q 750 597 1062 519 
Q 1375 441 1716 441 
Q 2309 441 2620 675 
Q 2931 909 2931 1356 
Q 2931 1769 2642 2001 
Q 2353 2234 1838 2234 
L 1294 2234 
L 1294 2753 
L 1863 2753 
Q 2328 2753 2575 2939 
Q 2822 3125 2822 3475 
Q 2822 3834 2567 4026 
Q 2313 4219 1838 4219 
Q 1578 4219 1281 4162 
Q 984 4106 628 3988 
L 628 4550 
Q 988 4650 1302 4700 
Q 1616 4750 1894 4750 
Q 2613 4750 3031 4423 
Q 3450 4097 3450 3541 
Q 3450 3153 3228 2886 
Q 3006 2619 2597 2516 
z
" transform="scale(0.015625)"/>
       </defs>
       <use xlink:href="#DejaVuSans-33"/>
       <use xlink:href="#DejaVuSans-32" x="63.623047"/>
       <use xlink:href="#DejaVuSans-30" x="127.246094"/>
       <use xlink:href="#DejaVuSans-30" x="190.869141"/>
       <use xlink:href="#DejaVuSans-30" x="254.492188"/>
       <use xlink:href="#DejaVuSans-30" x="318.115234"/>
      </g>
     </g>
    </g>
    <g id="ytick_8">
     <g id="line2d_18">
      <g>
       <use xlink:href="#m5d91394346" x="1244.16" y="459.930637" style="stroke: #000000; stroke-width: 0.8"/>
      </g>
     </g>
     <g id="text_17">
      <!-- 340000 -->
      <g transform="translate(1251.16 463.729855) scale(0.1 -0.1)">
       <use xlink:href="#DejaVuSans-33"/>
       <use xlink:href="#DejaVuSans-34" x="63.623047"/>
       <use xlink:href="#DejaVuSans-30" x="127.246094"/>
       <use xlink:href="#DejaVuSans-30" x="190.869141"/>
       <use xlink:href="#DejaVuSans-30" x="254.492188"/>
       <use xlink:href="#DejaVuSans-30" x="318.115234"/>
      </g>
     </g>
    </g>
    <g id="ytick_9">
     <g id="line2d_19">
      <g>
       <use xlink:href="#m5d91394346" x="1244.16" y="345.46589" style="stroke: #000000; stroke-width: 0.8"/>
      </g>
     </g>
     <g id="text_18">
      <!-- 360000 -->
      <g transform="translate(1251.16 349.265108) scale(0.1 -0.1)">
       <use xlink:href="#DejaVuSans-33"/>
       <use xlink:href="#DejaVuSans-36" x="63.623047"/>
       <use xlink:href="#DejaVuSans-30" x="127.246094"/>
       <use xlink:href="#DejaVuSans-30" x="190.869141"/>
       <use xlink:href="#DejaVuSans-30" x="254.492188"/>
       <use xlink:href="#DejaVuSans-30" x="318.115234"/>
      </g>
     </g>
    </g>
    <g id="ytick_10">
     <g id="line2d_20">
      <g>
       <use xlink:href="#m5d91394346" x="1244.16" y="231.001143" style="stroke: #000000; stroke-width: 0.8"/>
      </g>
     </g>
     <g id="text_19">
      <!-- 380000 -->
      <g transform="translate(1251.16 234.800361) scale(0.1 -0.1)">
       <use xlink:href="#DejaVuSans-33"/>
       <use xlink:href="#DejaVuSans-38" x="63.623047"/>
       <use xlink:href="#DejaVuSans-30" x="127.246094"/>
       <use xlink:href="#DejaVuSans-30" x="190.869141"/>
       <use xlink:href="#DejaVuSans-30" x="254.492188"/>
       <use xlink:href="#DejaVuSans-30" x="318.115234"/>
      </g>
     </g>
    </g>
    <g id="ytick_11">
     <g id="line2d_21">
      <g>
       <use xlink:href="#m5d91394346" x="1244.16" y="116.536395" style="stroke: #000000; stroke-width: 0.8"/>
      </g>
     </g>
     <g id="text_20">
      <!-- 400000 -->
      <g transform="translate(1251.16 120.335614) scale(0.1 -0.1)">
       <use xlink:href="#DejaVuSans-34"/>
       <use xlink:href="#DejaVuSans-30" x="63.623047"/>
       <use xlink:href="#DejaVuSans-30" x="127.246094"/>
       <use xlink:href="#DejaVuSans-30" x="190.869141"/>
       <use xlink:href="#DejaVuSans-30" x="254.492188"/>
       <use xlink:href="#DejaVuSans-30" x="318.115234"/>
      </g>
     </g>
    </g>
    <g id="text_21">
     <!-- Cost -->
     <g transform="translate(1300.933437 362.716825) rotate(-90) scale(0.1 -0.1)">
      <defs>
       <path id="DejaVuSans-43" d="M 4122 4306 
L 4122 3641 
Q 3803 3938 3442 4084 
Q 3081 4231 2675 4231 
Q 1875 4231 1450 3742 
Q 1025 3253 1025 2328 
Q 1025 1406 1450 917 
Q 1875 428 2675 428 
Q 3081 428 3442 575 
Q 3803 722 4122 1019 
L 4122 359 
Q 3791 134 3420 21 
Q 3050 -91 2638 -91 
Q 1578 -91 968 557 
Q 359 1206 359 2328 
Q 359 3453 968 4101 
Q 1578 4750 2638 4750 
Q 3056 4750 3426 4639 
Q 3797 4528 4122 4306 
z
" transform="scale(0.015625)"/>
       <path id="DejaVuSans-73" d="M 2834 3397 
L 2834 2853 
Q 2591 2978 2328 3040 
Q 2066 3103 1784 3103 
Q 1356 3103 1142 2972 
Q 928 2841 928 2578 
Q 928 2378 1081 2264 
Q 1234 2150 1697 2047 
L 1894 2003 
Q 2506 1872 2764 1633 
Q 3022 1394 3022 966 
Q 3022 478 2636 193 
Q 2250 -91 1575 -91 
Q 1294 -91 989 -36 
Q 684 19 347 128 
L 347 722 
Q 666 556 975 473 
Q 1284 391 1588 391 
Q 1994 391 2212 530 
Q 2431 669 2431 922 
Q 2431 1156 2273 1281 
Q 2116 1406 1581 1522 
L 1381 1569 
Q 847 1681 609 1914 
Q 372 2147 372 2553 
Q 372 3047 722 3315 
Q 1072 3584 1716 3584 
Q 2034 3584 2315 3537 
Q 2597 3491 2834 3397 
z
" transform="scale(0.015625)"/>
      </defs>
      <use xlink:href="#DejaVuSans-43"/>
      <use xlink:href="#DejaVuSans-6f" x="69.824219"/>
      <use xlink:href="#DejaVuSans-73" x="131.005859"/>
      <use xlink:href="#DejaVuSans-74" x="183.105469"/>
     </g>
    </g>
   </g>
   <g id="line2d_22">
    <path d="M 221.498182 198.252778 
L 221.595588 139.005825 
L 221.692994 187.172591 
L 221.7904 139.429345 
L 221.887806 253.83686 
L 221.985212 108.512417 
L 222.180025 299.439615 
L 222.374837 227.704558 
L 222.472243 210.076987 
L 222.569649 294.288701 
L 222.667055 242.50485 
L 222.764461 319.150444 
L 222.959273 198.847995 
L 223.056679 213.430804 
L 223.154086 207.982282 
L 223.251492 176.653281 
L 223.446304 293.762163 
L 223.54371 251.559011 
L 223.641116 290.042059 
L 223.835928 276.558112 
L 223.933334 279.270926 
L 224.030741 267.709987 
L 224.128147 288.657036 
L 224.225553 173.539839 
L 224.420365 277.164775 
L 224.517771 248.067836 
L 224.712583 141.214995 
L 225.004802 141.214995 
L 225.199614 107.9172 
L 225.29702 208.840767 
L 225.394426 169.487787 
L 225.491832 312.202434 
L 225.589238 229.364297 
L 225.78405 251.971084 
L 226.076269 127.605136 
L 226.271081 127.605136 
L 226.368487 272.265684 
L 226.465893 196.283985 
L 226.563299 257.95759 
L 226.758111 177.946732 
L 226.855518 177.946732 
L 226.952924 197.073791 
L 227.245142 174.28386 
L 227.439954 174.28386 
L 227.634766 227.5672 
L 227.732172 227.5672 
L 227.829579 187.20693 
L 228.024391 248.170855 
L 228.121797 248.170855 
L 228.219203 226.411106 
L 228.414015 276.191825 
L 228.608827 240.020965 
L 228.706234 240.020965 
L 228.901046 302.495824 
L 229.193264 225.461049 
L 229.388076 225.461049 
L 229.582888 219.703472 
L 229.777701 219.703472 
L 229.875107 242.184348 
L 230.069919 212.732569 
L 230.264731 385.56289 
L 230.55695 314.835123 
L 230.654356 413.732665 
L 230.849168 313.988084 
L 231.04398 370.144489 
L 231.141386 370.144489 
L 231.336198 346.725002 
L 231.628417 346.725002 
L 231.725823 300.561369 
L 231.920635 308.425097 
L 232.115447 308.425097 
L 232.310259 248.674499 
L 232.602478 248.674499 
L 232.79729 231.378876 
L 234.745412 231.378876 
L 234.940224 121.412594 
L 236.109097 121.412594 
L 236.30391 298.100377 
L 237.083158 298.100377 
L 237.277971 269.90771 
L 238.154626 269.90771 
L 238.349438 411.202994 
L 238.54425 411.202994 
L 238.739062 413.81279 
L 239.128687 413.81279 
L 239.323499 282.773548 
L 241.369027 282.773548 
L 241.563839 314.594747 
L 242.245682 314.594747 
L 242.440494 306.742466 
L 242.635306 357.026829 
L 242.732713 357.026829 
L 243.219743 432.195828 
L 243.317149 432.195828 
L 243.511961 277.428044 
L 243.706774 364.444145 
L 244.193804 364.444145 
L 244.29121 328.822715 
L 244.486022 410.161365 
L 246.434145 410.161365 
L 246.628957 292.056639 
L 259.973593 292.056639 
L 260.168405 339.10165 
L 276.532631 339.10165 
L 276.727443 375.329742 
L 284.325119 375.329742 
L 284.519931 416.273782 
L 285.29918 416.273782 
L 285.493992 430.11257 
L 286.955084 430.11257 
L 287.149896 402.309083 
L 288.416175 402.309083 
L 288.610988 429.666157 
L 291.143546 429.666157 
L 291.338359 462.002449 
L 300.202314 462.002449 
L 300.397126 477.237706 
L 301.566 477.237706 
L 301.760812 530.86444 
L 313.741763 530.86444 
L 313.936575 473.254333 
L 326.112338 473.254333 
L 326.30715 528.334769 
L 344.81431 528.334769 
L 345.009122 523.035052 
L 352.022362 523.035052 
L 352.217174 527.762446 
L 384.945625 527.762446 
L 385.140437 532.112106 
L 386.504122 532.112106 
L 386.698935 547.862455 
L 398.095449 547.862455 
L 398.290261 548.228742 
L 399.55654 548.228742 
L 399.751353 547.496168 
L 430.921306 547.496168 
L 431.116118 555.245431 
L 661.871179 555.245431 
L 662.065991 570.881316 
L 927.400219 570.881316 
L 927.595032 574.692992 
L 969.38225 574.692992 
L 969.577062 595.2852 
L 1195.461818 595.2852 
L 1195.461818 595.2852 
" clip-path="url(#pb9bcdb1ceb)" style="fill: none; stroke: #008000; stroke-opacity: 0.5; stroke-width: 1.5; stroke-linecap: square"/>
   </g>
   <g id="patch_13">
    <path d="M 172.8 619.6536 
L 172.8 83.5488 
" style="fill: none; stroke: #000000; stroke-width: 0.8; stroke-linejoin: miter; stroke-linecap: square"/>
   </g>
   <g id="patch_14">
    <path d="M 1244.16 619.6536 
L 1244.16 83.5488 
" style="fill: none; stroke: #000000; stroke-width: 0.8; stroke-linejoin: miter; stroke-linecap: square"/>
   </g>
   <g id="patch_15">
    <path d="M 172.8 619.6536 
L 1244.16 619.6536 
" style="fill: none; stroke: #000000; stroke-width: 0.8; stroke-linejoin: miter; stroke-linecap: square"/>
   </g>
   <g id="patch_16">
    <path d="M 172.8 83.5488 
L 1244.16 83.5488 
" style="fill: none; stroke: #000000; stroke-width: 0.8; stroke-linejoin: miter; stroke-linecap: square"/>
   </g>
   <g id="legend_3">
    <g id="patch_17">
     <path d="M 1246.16 619.6536 
L 1300.39125 619.6536 
Q 1302.39125 619.6536 1302.39125 617.6536 
L 1302.39125 603.975475 
Q 1302.39125 601.975475 1300.39125 601.975475 
L 1246.16 601.975475 
Q 1244.16 601.975475 1244.16 603.975475 
L 1244.16 617.6536 
Q 1244.16 619.6536 1246.16 619.6536 
z
" style="fill: #ffffff; opacity: 0.8; stroke: #cccccc; stroke-linejoin: miter"/>
    </g>
    <g id="line2d_23">
     <path d="M 1248.16 610.073913 
L 1258.16 610.073913 
L 1268.16 610.073913 
" style="fill: none; stroke: #008000; stroke-opacity: 0.5; stroke-width: 1.5; stroke-linecap: square"/>
    </g>
    <g id="text_22">
     <!-- Cost -->
     <g transform="translate(1276.16 613.573913) scale(0.1 -0.1)">
      <use xlink:href="#DejaVuSans-43"/>
      <use xlink:href="#DejaVuSans-6f" x="69.824219"/>
      <use xlink:href="#DejaVuSans-73" x="131.005859"/>
      <use xlink:href="#DejaVuSans-74" x="183.105469"/>
     </g>
    </g>
   </g>
  </g>
 </g>
 <defs>
  <clipPath id="pb9bcdb1ceb">
   <rect x="172.8" y="83.5488" width="1071.36" height="536.1048"/>
  </clipPath>
 </defs>
</svg>
